<svg xmlns="http://www.w3.org/2000/svg" width="117" height="112" shape-rendering="geometricPrecision" text-rendering="geometricPrecision" image-rendering="optimizeQuality" fill-rule="evenodd" clip-rule="evenodd"><defs><style>.fil3{fill:#2887d2}.fil0,.fil4,.fil6{fill:#fefefe;fill-rule:nonzero}.fil0,.fil4{fill:#0098da}.fil0{fill:#2887d2}</style></defs><g id="Layer_x0020_1"><g id="_772723912"><path class="fil0" d="M93 27V12h3v15zM102 37h15v2h-15zM100 32l-1-1 12-12 1 1z"/><path fill="#306fb6" d="M18 101h87V53L63 15 18 53z"/><path d="M35 22v79s57-2 57 0V37L82 22v-1s-47 0-47 1z" fill="#fefefe"/><path id="1" class="fil0" d="M35 101V22v79zm0 0zm57 0h-1 1-57v-1h56l1 1zm0-64v64h-1 1-1V37h1zm-9-15l9 15-10-15h1zm0 0zm-1-1l1 1-1 1v-2zm0 0zm-47 1v-1h47v1H35z"/><path class="fil3" d="M82 22l-1 11s0 3 2 3c2 1 9 1 9 1L82 21v1z"/><path id="1" class="fil0" d="M81 33l1-11-1 11zm0 0zm2 3v1l-1-1v-1h-1v-2 1h1v2h1zm9 1h-9v-1h2v1h7zM82 21l10 16-10-16zm0 0v-1 1zm0 1v-1 1zm0 0z"/><path class="fil0" d="M18 101h87L73 77H49z"/><path class="fil4" d="M18 101V53l31 24zM105 101V53L73 77z"/><path d="M43 23c1-10-7-20-17-22C15-2 3 5 1 17c-3 11 4 23 16 25 9 3 19-2 24-11h17c-15-8-10-5-15-8z" fill="#fc4d44" fill-rule="nonzero"/><g><path class="fil6" d="M33 30l-2-3c-1-2-1-3-1-5v-3c0-3-3-6-6-7v-2c0-2-1-3-2-3-2 0-3 1-3 3v2c-3 1-5 4-5 7v3c0 2-1 3-2 5l-2 3v1h23v-1zM22 34c1 0 3 0 3-2h-7c1 2 2 2 4 2z"/></g><path class="fil3" d="M49 61h32.333v4.7H49zM49 50h32.333v4.7H49zM49 41h22.098v4.7H49z"/><g><circle cx="99" cy="95" r="17" fill="#fcbc44"/><path d="M102 100v-2c-1 0-2-1-3-1-1-1-1-1-2-1-1-1-2-1-2-2-1 0-1-1-1-1-1-1-1-2-1-3s1-3 2-4 2-1 4-1v-3h2v3c2 0 3 1 4 2s1 2 1 4h-4v-2c-1-1-2-1-2-1h-2c-1 1-1 1-1 2s0 2 1 2c0 0 1 1 2 1 1 1 2 1 3 2 1 0 1 0 2 1 0 0 1 1 1 2v2c0 1 0 3-1 4s-3 1-4 2v2h-3v-2c-1-1-3-1-4-3-1-1-2-2-2-4h4c0 1 1 2 1 2 1 1 2 1 3 1h2v-2z" fill="#00a859" fill-rule="nonzero"/></g></g></g></svg>